#N canvas 436 108 786 764 12;
#X obj 205 29 inlet;
#X text 254 25 messages;
#X text 491 21 Arg 1: Index;
#X obj 294 310 osc~;
#X obj 294 202 vline~;
#X obj 294 341 *~ 0.5;
#X obj 294 365 +~ 0.5;
#X obj 294 226 pow~ 2;
#X obj 34 201 osc~, f 9;
#X obj 33 472 *~;
#X obj 34 26 inlet~;
#X text 86 25 root freq;
#X obj 34 167 *~ \$1;
#X text 491 41 Arg 2: Max Amp \, in division;
#X obj 34 230 /~ \$2;
#X text 51 400 Amp LF0;
#X obj 33 536 *~;
#X text 156 449 Amp Envelope;
#X text 576 350 LFO depth;
#X obj 403 82 s \$0-amp;
#X obj 141 470 r \$0-amp;
#X obj 141 494 vline~;
#X obj 140 523 *~;
#X obj 33 690 hip~ 5;
#X obj 33 714 outlet~;
#X obj 246 117 s \$0-lfo-rate;
#X obj 205 77 s \$0-phase;
#X obj 294 168 r \$0-lfo-rate;
#X obj 205 53 route phase lfo-rate lfo-depth amp;
#X obj 292 85 s \$0-lfo-depth;
#X text 491 61 Arg 3: Max LFO rate in hz;
#X obj 294 262 *~ \$3;
#X obj 467 308 swap 1;
#X obj 467 332 -, f 6;
#X obj 390 279 t a a;
#X obj 390 347 pack 0 10;
#X obj 390 371 line~;
#X obj 294 400 *~;
#X obj 294 424 +~;
#X obj 467 391 pack 0 10;
#X obj 467 415 line~;
#X obj 94 164 r sync-phase;
#X obj 390 201 r lfo-depth;
#X text 491 91 Arg 4: Max LFO depth;
#X obj 390 225 * \$4;
#X obj 33 640 *~;
#X obj 68 562 sig~ 1;
#X obj 68 616 -~;
#X obj 185 652 lop~ 5;
#X obj 185 544 r voice-mutes;
#X obj 185 568 sel \$5;
#X obj 283 601 f 1;
#X obj 317 603 + 1;
#X obj 317 627 == 1;
#X obj 319 515 r all-on;
#X obj 319 539 0;
#X obj 283 625 print;
#X obj 86 661 env~;
#X floatatom 86 685 5 0 0 0 - - - 0;
#X connect 0 0 28 0;
#X connect 3 0 5 0;
#X connect 4 0 7 0;
#X connect 5 0 6 0;
#X connect 6 0 37 0;
#X connect 7 0 31 0;
#X connect 8 0 14 0;
#X connect 9 0 16 0;
#X connect 10 0 12 0;
#X connect 12 0 8 0;
#X connect 14 0 9 0;
#X connect 16 0 45 0;
#X connect 16 0 57 0;
#X connect 20 0 21 0;
#X connect 21 0 22 0;
#X connect 21 0 22 1;
#X connect 22 0 16 1;
#X connect 23 0 24 0;
#X connect 27 0 4 0;
#X connect 28 0 26 0;
#X connect 28 1 25 0;
#X connect 28 2 29 0;
#X connect 28 3 19 0;
#X connect 31 0 3 0;
#X connect 32 0 33 0;
#X connect 32 1 33 1;
#X connect 33 0 39 0;
#X connect 34 0 35 0;
#X connect 34 1 32 0;
#X connect 35 0 36 0;
#X connect 36 0 37 1;
#X connect 37 0 38 0;
#X connect 38 0 9 1;
#X connect 39 0 40 0;
#X connect 40 0 38 1;
#X connect 41 0 8 1;
#X connect 42 0 44 0;
#X connect 44 0 34 0;
#X connect 45 0 23 0;
#X connect 46 0 47 0;
#X connect 47 0 45 1;
#X connect 48 0 47 1;
#X connect 49 0 50 0;
#X connect 50 0 51 0;
#X connect 51 0 52 0;
#X connect 51 0 48 0;
#X connect 51 0 56 0;
#X connect 52 0 53 0;
#X connect 53 0 51 1;
#X connect 54 0 55 0;
#X connect 55 0 51 0;
#X connect 57 0 58 0;
