#N canvas 63 88 880 639 12;
#X obj 205 29 inlet;
#X text 254 25 messages;
#X obj 294 310 osc~;
#X obj 294 202 vline~;
#X obj 294 341 *~ 0.5;
#X obj 294 365 +~ 0.5;
#X obj 294 226 pow~ 2;
#X text 51 400 Amp LF0;
#X obj 78 536 *~;
#X text 167 340 Amp Envelope;
#X text 576 350 LFO depth;
#X obj 403 82 s \$0-amp;
#X obj 152 361 r \$0-amp;
#X obj 152 385 vline~;
#X obj 151 414 *~;
#X obj 78 560 hip~ 5;
#X obj 78 584 outlet~;
#X obj 246 117 s \$0-lfo-rate;
#X obj 205 77 s \$0-phase;
#X obj 294 168 r \$0-lfo-rate;
#X obj 205 53 route phase lfo-rate lfo-depth amp;
#X obj 292 85 s \$0-lfo-depth;
#X text 491 61 Arg 3: Max LFO rate in hz;
#X obj 294 262 *~ \$3;
#X obj 467 308 swap 1;
#X obj 467 332 -, f 6;
#X obj 390 255 clip 0 1;
#X obj 390 279 t a a;
#X obj 390 347 pack 0 10;
#X obj 390 371 line~;
#X obj 294 400 *~;
#X obj 294 424 +~;
#X obj 467 391 pack 0 10;
#X obj 467 415 line~;
#X obj 34 256 noise~;
#X text 491 21 Arg 1: Max Amp \, in div;
#X obj 34 280 /~ \$1;
#X text 491 41 Arg 2: filter rez;
#X obj 33 472 vcf~ \$2;
#X obj 626 453 r noise-gate;
#X obj 513 499 -~;
#X obj 626 501 vline~;
#X obj 626 525 *~;
#X msg 626 477 0.7 10 \, 0 1000 10;
#X obj 513 475 sig~ 1000;
#X obj 626 549 *~ 1000;
#X obj 294 472 +~;
#X obj 390 231 r lfo-depth;
#X obj 401 474 -~;
#X obj 401 450 sig~ 3000;
#X obj 294 448 *~;
#X obj 430 476 *~ 3000;
#X connect 0 0 20 0;
#X connect 2 0 4 0;
#X connect 3 0 6 0;
#X connect 4 0 5 0;
#X connect 5 0 30 0;
#X connect 6 0 23 0;
#X connect 8 0 15 0;
#X connect 12 0 13 0;
#X connect 13 0 14 0;
#X connect 13 0 14 1;
#X connect 14 0 8 1;
#X connect 15 0 16 0;
#X connect 19 0 3 0;
#X connect 20 0 18 0;
#X connect 20 1 17 0;
#X connect 20 2 21 0;
#X connect 20 3 11 0;
#X connect 23 0 2 0;
#X connect 24 0 25 0;
#X connect 24 1 25 1;
#X connect 25 0 32 0;
#X connect 26 0 27 0;
#X connect 27 0 28 0;
#X connect 27 1 24 0;
#X connect 28 0 29 0;
#X connect 29 0 30 1;
#X connect 30 0 31 0;
#X connect 31 0 50 0;
#X connect 32 0 33 0;
#X connect 33 0 31 1;
#X connect 34 0 36 0;
#X connect 36 0 38 0;
#X connect 38 1 8 0;
#X connect 39 0 43 0;
#X connect 40 0 46 1;
#X connect 41 0 42 0;
#X connect 41 0 42 1;
#X connect 42 0 45 0;
#X connect 43 0 41 0;
#X connect 44 0 40 0;
#X connect 45 0 40 1;
#X connect 45 0 51 0;
#X connect 46 0 38 1;
#X connect 47 0 26 0;
#X connect 48 0 50 1;
#X connect 49 0 48 0;
#X connect 50 0 46 0;
#X connect 51 0 48 1;
