#N canvas 436 108 786 619 12;
#X obj 205 29 inlet;
#X text 254 25 messages;
#X text 491 21 Arg 1: Index;
#X obj 294 310 osc~;
#X obj 294 202 vline~;
#X obj 294 341 *~ 0.5;
#X obj 294 365 +~ 0.5;
#X obj 294 226 pow~ 2;
#X obj 34 201 osc~, f 9;
#X obj 33 472 *~;
#X obj 34 26 inlet~;
#X text 86 25 root freq;
#X obj 34 167 *~ \$1;
#X text 491 41 Arg 2: Max Amp \, in division;
#X obj 34 230 /~ \$2;
#X text 51 400 Amp LF0;
#X obj 33 536 *~;
#X text 156 449 Amp Envelope;
#X text 576 350 LFO depth;
#X obj 403 82 s \$0-amp;
#X obj 141 470 r \$0-amp;
#X obj 141 494 vline~;
#X obj 140 523 *~;
#X obj 33 560 hip~ 5;
#X obj 33 584 outlet~;
#X obj 246 117 s \$0-lfo-rate;
#X obj 205 77 s \$0-phase;
#X obj 294 168 r \$0-lfo-rate;
#X obj 205 53 route phase lfo-rate lfo-depth amp;
#X obj 292 85 s \$0-lfo-depth;
#X text 491 61 Arg 3: Max LFO rate in hz;
#X obj 294 262 *~ \$3;
#X obj 390 231 r \$0-lfo-depth;
#X obj 467 308 swap 1;
#X obj 467 332 -, f 6;
#X obj 390 255 clip 0 1;
#X obj 390 279 t a a;
#X obj 390 347 pack 0 10;
#X obj 390 371 line~;
#X obj 294 400 *~;
#X obj 294 424 +~;
#X obj 467 391 pack 0 10;
#X obj 467 415 line~;
#X obj 508 155 hsl 128 15 0 127 0 0 empty empty empty -2 -8 0 10 #fcfcfc
#000000 #000000 0 1;
#X obj 505 175 / 127;
#X obj 94 164 r sync-phase;
#X connect 0 0 28 0;
#X connect 3 0 5 0;
#X connect 4 0 7 0;
#X connect 5 0 6 0;
#X connect 6 0 39 0;
#X connect 7 0 31 0;
#X connect 8 0 14 0;
#X connect 9 0 16 0;
#X connect 10 0 12 0;
#X connect 12 0 8 0;
#X connect 14 0 9 0;
#X connect 16 0 23 0;
#X connect 20 0 21 0;
#X connect 21 0 22 0;
#X connect 21 0 22 1;
#X connect 22 0 16 1;
#X connect 23 0 24 0;
#X connect 27 0 4 0;
#X connect 28 0 26 0;
#X connect 28 1 25 0;
#X connect 28 2 29 0;
#X connect 28 3 19 0;
#X connect 31 0 3 0;
#X connect 32 0 35 0;
#X connect 33 0 34 0;
#X connect 33 1 34 1;
#X connect 34 0 41 0;
#X connect 35 0 36 0;
#X connect 36 0 37 0;
#X connect 36 1 33 0;
#X connect 37 0 38 0;
#X connect 38 0 39 1;
#X connect 39 0 40 0;
#X connect 40 0 9 1;
#X connect 41 0 42 0;
#X connect 42 0 40 1;
#X connect 43 0 44 0;
#X connect 44 0 35 0;
#X connect 45 0 8 1;
