#N canvas 144 277 1380 819 12;
#X obj 49 755 dac~ 1 2;
#X obj 326 150 list prepend lfo-rate;
#X obj 326 188 list trim;
#X obj 195 92 list prepend amp;
#X obj 364 51 list prepend lfo-depth;
#X msg 364 22 1;
#X obj 27 67 s~ root-sig;
#X obj 178 164 r~ root-sig;
#X obj 203 241 throw~ bus;
#X obj 49 551 catch~ bus;
#X obj 14 169 s trig;
#X obj 14 142 bng 15 250 50 0 empty empty empty 17 7 0 10 #fcfcfc #000000
#000000;
#X obj 195 32 r trig;
#X obj 288 23 r trig;
#X obj 403 20 loadbang;
#X obj 700 168 list prepend lfo-rate;
#X obj 700 206 list trim;
#X obj 569 110 list prepend amp;
#X obj 773 230 list prepend lfo-depth;
#X msg 773 201 1;
#X obj 552 182 r~ root-sig;
#X obj 577 259 throw~ bus;
#X obj 569 50 r trig;
#X obj 700 68 r trig;
#X obj 812 199 loadbang;
#X obj 709 425 list prepend lfo-rate;
#X obj 709 463 list trim;
#X obj 578 367 list prepend amp;
#X obj 747 331 list prepend lfo-depth;
#X msg 747 297 1;
#X obj 561 439 r~ root-sig;
#X obj 586 516 throw~ bus;
#X obj 578 307 r trig;
#X obj 709 371 r trig;
#X obj 786 295 loadbang;
#X obj 1099 189 list prepend lfo-rate;
#X obj 1099 227 list trim;
#X obj 969 189 list prepend amp;
#X obj 1137 90 list prepend lfo-depth;
#X obj 1098 289 throw~ bus;
#X obj 968 71 r trig;
#X obj 1086 50 r trig;
#X obj 1135 31 loadbang;
#X obj 971 577 list prepend lfo-rate;
#X obj 971 615 list trim;
#X obj 840 519 list prepend amp;
#X obj 1009 478 list prepend lfo-depth;
#X msg 1009 449 1;
#X obj 823 591 r~ root-sig;
#X obj 848 668 throw~ bus;
#X obj 840 459 r trig;
#X obj 933 450 r trig;
#X obj 1048 447 loadbang;
#X obj 13 243 s fall;
#X obj 14 215 bng 15 250 50 0 empty empty empty 17 7 0 10 #fcfcfc #000000
#000000;
#X obj 411 117 r fall;
#X obj 1189 158 r fall;
#X obj 1065 541 r fall;
#X obj 531 701 list prepend lfo-rate;
#X obj 531 739 list trim;
#X obj 400 643 list prepend amp;
#X obj 569 602 list prepend lfo-depth;
#X msg 569 573 1;
#X obj 383 715 r~ root-sig;
#X obj 408 792 throw~ bus;
#X obj 400 583 r trig;
#X obj 493 574 r trig;
#X obj 608 571 loadbang;
#X obj 625 665 r fall;
#X obj 586 492 ghost-voice~ 6 12 2;
#X obj 365 415 list prepend lfo-rate;
#X obj 365 453 list trim;
#X obj 234 357 list prepend amp;
#X obj 403 316 list prepend lfo-depth;
#X msg 403 287 1;
#X obj 217 429 r~ root-sig;
#X obj 242 506 throw~ bus;
#X obj 234 297 r trig;
#X obj 327 288 r trig;
#X obj 442 285 loadbang;
#X obj 483 383 r fall;
#X obj 203 217 ghost-voice~ 1 2 1.5;
#X obj 1183 722 list prepend lfo-rate;
#X obj 1183 760 list trim;
#X obj 1052 664 list prepend amp;
#X obj 1221 623 list prepend lfo-depth;
#X msg 1221 594 1;
#X obj 1035 736 r~ root-sig;
#X obj 1060 813 throw~ bus;
#X obj 1052 604 r trig;
#X obj 1145 595 r trig;
#X obj 1260 592 loadbang;
#X obj 1277 686 r fall;
#X obj 823 615 +~ 0.1;
#X obj 73 230 s \$0-loop;
#X obj 20 106 r \$0-loop;
#X obj 27 43 sig~ 45;
#X obj 561 463 +~ 0.1;
#X obj 242 482 ghost-voice~ -16.2 54 3;
#X obj 1336 436 list prepend lfo-rate;
#X obj 1336 474 list trim;
#X obj 1205 378 list prepend amp;
#X obj 1374 337 list prepend lfo-depth;
#X msg 1374 308 1;
#X obj 1181 429 r~ root-sig;
#X obj 1213 527 throw~ bus;
#X obj 1205 318 r trig;
#X obj 1298 309 r trig;
#X obj 1413 306 loadbang;
#X obj 1416 375 r fall;
#X obj 1181 453 +~;
#X obj 1052 377 vline~;
#X obj 73 182 del 50000;
#X obj 1032 293 r trig;
#X obj 67 648 lop~ 5;
#X obj 49 681 *~;
#X msg 326 91 1 50000;
#X msg 195 65 1 10000;
#X msg 569 83 1 10000;
#X msg 578 340 1 10000;
#X msg 1336 377 1 10000;
#X msg 1028 329 1 20000;
#X msg 1052 637 1 10000;
#X msg 400 616 1 10000;
#X msg 840 492 1 10000;
#X obj 902 395 r fall;
#X msg 902 419 0 9000;
#X obj 631 55 r fall;
#X msg 631 79 0 9000;
#X msg 700 109 1 30000;
#X obj 797 88 r fall;
#X msg 797 123 0 15000;
#X msg 1099 130 1 30000;
#X msg 365 356 1 30000;
#X msg 234 330 1 10000;
#X obj 769 371 r fall;
#X obj 1030 77 r fall;
#X msg 1030 101 0 9000;
#X obj 21 311 loadbang;
#N canvas 92 117 450 300 connect 0;
#X obj 34 41 inlet;
#X obj 34 125 netreceive -u;
#X obj 34 149 s udp-messi;
#X msg 34 86 listen 3001;
#X connect 0 0 3 0;
#X connect 1 0 2 0;
#X connect 3 0 1 0;
#X restore 20 447 pd connect;
#X obj 21 335 t b b;
#X obj 20 382 del 2000;
#X msg 110 364 \; pd dsp 1;
#X obj 67 597 r udp-messi;
#X obj 67 621 route vol;
#X obj 98 119 r udp-messi;
#X obj 98 143 route loop;
#X obj 100 2 r udp-messi;
#X obj 100 26 route trig;
#X obj 95 265 r udp-messi;
#X obj 95 289 route fall;
#X obj 162 615 tgl 15 0 empty empty empty 17 7 0 10 #fcfcfc #000000
#000000 0 1;
#X msg 971 518 1 60000;
#X msg 531 642 1 60000;
#X msg 709 399 1 60000;
#X msg 1183 663 1 60000;
#X msg 1205 351 1 80000;
#X obj 996 670 r fall;
#X msg 996 698 0 30000;
#X obj 408 768 ghost-voice~ 11.1 32 1.5;
#X obj 953 294 r fall;
#X msg 949 330 0 20000;
#X msg 385 381 0 30000;
#X msg 551 667 0 30000;
#X msg 346 117 0 30000;
#X msg 1119 155 0 30000;
#X msg 1414 402 0 30000;
#X msg 1203 688 0 30000;
#X msg 991 543 0 30000;
#X msg 769 399 0 30000;
#X obj 577 235 ghost-voice~ -3.3333 6 1.25;
#X obj 1213 503 ghost-voice~ 2 8 1.9;
#X obj 848 644 ghost-voice~ -9 24 2.1;
#X obj 1060 789 ghost-voice~ -13 47 1.3333;
#X obj 73 206 spigot 0;
#X msg 300 327 0 10000;
#X msg 265 67 0 10000;
#X obj 1098 265 ghost-voice-noise~ 24 4 1.33333;
#X msg 968 104 1 10000;
#X msg 1137 61 0.7;
#X connect 1 0 2 0;
#X connect 2 0 81 1;
#X connect 3 0 2 0;
#X connect 4 0 2 0;
#X connect 5 0 4 0;
#X connect 7 0 81 0;
#X connect 9 0 115 0;
#X connect 11 0 10 0;
#X connect 11 0 112 0;
#X connect 12 0 117 0;
#X connect 13 0 116 0;
#X connect 14 0 5 0;
#X connect 15 0 16 0;
#X connect 16 0 170 1;
#X connect 17 0 16 0;
#X connect 18 0 16 0;
#X connect 19 0 18 0;
#X connect 20 0 170 0;
#X connect 22 0 118 0;
#X connect 23 0 129 0;
#X connect 24 0 19 0;
#X connect 25 0 26 0;
#X connect 26 0 69 1;
#X connect 27 0 26 0;
#X connect 28 0 26 0;
#X connect 29 0 28 0;
#X connect 30 0 97 0;
#X connect 32 0 119 0;
#X connect 33 0 154 0;
#X connect 34 0 29 0;
#X connect 35 0 36 0;
#X connect 36 0 177 0;
#X connect 37 0 36 0;
#X connect 38 0 36 0;
#X connect 40 0 178 0;
#X connect 41 0 132 0;
#X connect 42 0 179 0;
#X connect 43 0 44 0;
#X connect 44 0 172 1;
#X connect 45 0 44 0;
#X connect 46 0 44 0;
#X connect 47 0 46 0;
#X connect 48 0 93 0;
#X connect 50 0 124 0;
#X connect 51 0 152 0;
#X connect 52 0 47 0;
#X connect 54 0 53 0;
#X connect 55 0 164 0;
#X connect 56 0 165 0;
#X connect 57 0 168 0;
#X connect 58 0 59 0;
#X connect 59 0 159 1;
#X connect 60 0 59 0;
#X connect 61 0 59 0;
#X connect 62 0 61 0;
#X connect 63 0 159 0;
#X connect 65 0 123 0;
#X connect 66 0 153 0;
#X connect 67 0 62 0;
#X connect 68 0 163 0;
#X connect 69 0 31 0;
#X connect 70 0 71 0;
#X connect 71 0 98 1;
#X connect 72 0 71 0;
#X connect 73 0 71 0;
#X connect 74 0 73 0;
#X connect 75 0 98 0;
#X connect 77 0 134 0;
#X connect 78 0 133 0;
#X connect 79 0 74 0;
#X connect 80 0 162 0;
#X connect 81 0 8 0;
#X connect 82 0 83 0;
#X connect 83 0 173 1;
#X connect 84 0 83 0;
#X connect 85 0 83 0;
#X connect 86 0 85 0;
#X connect 87 0 173 0;
#X connect 89 0 122 0;
#X connect 90 0 155 0;
#X connect 91 0 86 0;
#X connect 92 0 167 0;
#X connect 93 0 172 0;
#X connect 95 0 11 0;
#X connect 96 0 6 0;
#X connect 97 0 69 0;
#X connect 98 0 76 0;
#X connect 99 0 100 0;
#X connect 100 0 171 1;
#X connect 101 0 100 0;
#X connect 102 0 100 0;
#X connect 103 0 102 0;
#X connect 104 0 110 0;
#X connect 106 0 156 0;
#X connect 107 0 120 0;
#X connect 108 0 103 0;
#X connect 109 0 166 0;
#X connect 110 0 171 0;
#X connect 111 0 110 1;
#X connect 112 0 174 0;
#X connect 113 0 121 0;
#X connect 114 0 115 1;
#X connect 115 0 0 0;
#X connect 115 0 0 1;
#X connect 116 0 1 0;
#X connect 117 0 3 0;
#X connect 118 0 17 0;
#X connect 119 0 27 0;
#X connect 120 0 99 0;
#X connect 121 0 111 0;
#X connect 122 0 84 0;
#X connect 123 0 60 0;
#X connect 124 0 45 0;
#X connect 125 0 126 0;
#X connect 126 0 45 0;
#X connect 127 0 128 0;
#X connect 128 0 17 0;
#X connect 129 0 15 0;
#X connect 130 0 131 0;
#X connect 131 0 15 0;
#X connect 132 0 35 0;
#X connect 133 0 70 0;
#X connect 134 0 72 0;
#X connect 135 0 169 0;
#X connect 136 0 137 0;
#X connect 137 0 37 0;
#X connect 138 0 140 0;
#X connect 140 0 141 0;
#X connect 140 1 142 0;
#X connect 141 0 139 0;
#X connect 143 0 144 0;
#X connect 144 0 114 0;
#X connect 145 0 146 0;
#X connect 146 0 174 1;
#X connect 147 0 148 0;
#X connect 148 0 11 0;
#X connect 149 0 150 0;
#X connect 150 0 54 0;
#X connect 151 0 114 0;
#X connect 152 0 43 0;
#X connect 153 0 58 0;
#X connect 154 0 25 0;
#X connect 155 0 82 0;
#X connect 156 0 101 0;
#X connect 157 0 158 0;
#X connect 158 0 84 0;
#X connect 159 0 64 0;
#X connect 160 0 161 0;
#X connect 161 0 111 0;
#X connect 162 0 70 0;
#X connect 163 0 58 0;
#X connect 164 0 1 0;
#X connect 165 0 35 0;
#X connect 166 0 99 0;
#X connect 167 0 82 0;
#X connect 168 0 43 0;
#X connect 169 0 25 0;
#X connect 170 0 21 0;
#X connect 171 0 105 0;
#X connect 172 0 49 0;
#X connect 173 0 88 0;
#X connect 174 0 94 0;
#X connect 175 0 72 0;
#X connect 176 0 3 0;
#X connect 177 0 39 0;
#X connect 178 0 37 0;
#X connect 179 0 38 0;
