#N canvas 502 289 582 407 12;
#X text 47 61 Connect;
#X obj 95 322 netsend;
#X msg 95 107 connect localhost 3001;
#X obj 146 261 list prepend send;
#X obj 146 285 list trim;
#X obj 146 231 list prepend vol;
#X obj 149 173 hsl 128 15 0 127 0 0 empty empty empty -2 -8 0 10 #fcfcfc
#000000 #000000 0 1;
#X obj 146 194 / 127;
#X obj 293 231 list prepend trig;
#X obj 293 156 bng 15 250 50 0 empty empty empty 17 7 0 10 #fcfcfc
#000000 #000000;
#X obj 330 156 bng 15 250 50 0 empty empty empty 17 7 0 10 #fcfcfc
#000000 #000000;
#X obj 330 206 list prepend fall;
#X obj 357 178 list prepend loop;
#X obj 357 155 tgl 15 0 empty empty empty 17 7 0 10 #fcfcfc #000000
#000000 0 1;
#X connect 2 0 1 0;
#X connect 3 0 4 0;
#X connect 4 0 1 0;
#X connect 5 0 3 0;
#X connect 6 0 7 0;
#X connect 7 0 5 0;
#X connect 8 0 3 0;
#X connect 9 0 8 0;
#X connect 10 0 11 0;
#X connect 11 0 3 0;
#X connect 12 0 3 0;
#X connect 13 0 12 0;
