#N canvas 63 88 1240 733 12;
#X obj 776 393 s~ root-sig;
#X obj 16 505 catch~ bus;
#X obj 15 628 throw~ outL;
#X obj 29 598 throw~ outR;
#X obj 50 547 *~ 1;
#X obj 14 289 r notes;
#X obj 14 313 stripnote;
#X obj 14 397 s buttons;
#X obj 88 35 r buttons;
#X obj 776 175 r knob4;
#X obj 776 366 lop~ 3;
#X obj 776 199 * 100;
#X obj 776 223 + 30;
#N canvas 174 93 1177 668 osc-bank 0;
#X obj 177 126 list prepend lfo-rate;
#X obj 177 164 list trim;
#X obj 46 68 list prepend amp;
#X obj 26 151 r~ root-sig;
#X obj 26 218 throw~ bus;
#X obj 46 8 r trig;
#X obj 578 126 list prepend lfo-rate;
#X obj 578 164 list trim;
#X obj 384 98 list prepend amp;
#X obj 391 155 r~ root-sig;
#X obj 392 227 throw~ bus;
#X obj 384 8 r trig;
#X obj 709 425 list prepend lfo-rate;
#X obj 709 463 list trim;
#X obj 578 367 list prepend amp;
#X obj 561 439 r~ root-sig;
#X obj 561 516 throw~ bus;
#X obj 578 307 r trig;
#X obj 971 577 list prepend lfo-rate;
#X obj 971 615 list trim;
#X obj 840 519 list prepend amp;
#X obj 823 591 r~ root-sig;
#X obj 823 668 throw~ bus;
#X obj 840 459 r trig;
#X obj 531 701 list prepend lfo-rate;
#X obj 531 739 list trim;
#X obj 400 643 list prepend amp;
#X obj 383 715 r~ root-sig;
#X obj 408 792 throw~ bus;
#X obj 400 583 r trig;
#X obj 124 445 list prepend lfo-rate;
#X obj 124 483 list trim;
#X obj -7 387 list prepend amp;
#X obj 1 461 r~ root-sig;
#X obj 1 536 throw~ bus;
#X obj -7 317 r trig;
#X obj 1183 722 list prepend lfo-rate;
#X obj 1183 760 list trim;
#X obj 1052 664 list prepend amp;
#X obj 1035 736 r~ root-sig;
#X obj 1060 813 throw~ bus;
#X obj 1052 604 r trig;
#X obj 561 463 +~ 0.1;
#X obj 941 208 list prepend lfo-rate;
#X obj 941 246 list trim;
#X obj 810 150 list prepend amp;
#X obj 786 201 r~ root-sig;
#X obj 818 299 throw~ bus;
#X obj 810 90 r trig;
#X obj 786 225 +~;
#X obj 1012 89 vline~;
#X obj 992 5 r trig;
#X msg 177 87 1 50000;
#X msg 46 41 1 10000;
#X msg 384 41 1 10000;
#X msg 578 340 1 10000;
#X msg 941 149 1 10000;
#X msg 988 41 1 20000;
#X msg 1052 637 1 10000;
#X msg 400 616 1 10000;
#X msg 840 492 1 10000;
#X obj 905 455 r fall;
#X msg 905 479 0 9000;
#X obj 446 8 r fall;
#X msg 446 57 0 9000;
#X msg 578 67 1 30000;
#X msg 649 80 0 15000;
#X msg 124 386 1 30000;
#X msg -7 350 1 10000;
#X msg 971 488 1 60000;
#X msg 531 642 1 60000;
#X msg 709 399 1 60000;
#X msg 1183 663 1 60000;
#X msg 810 123 1 80000;
#X obj 996 670 r fall;
#X msg 996 698 0 30000;
#X obj 913 6 r fall;
#X msg 909 42 0 20000;
#X msg 192 391 0 30000;
#X msg 551 667 0 30000;
#X msg 255 86 0 30000;
#X msg 1019 174 0 30000;
#X msg 1203 688 0 30000;
#X msg 991 543 0 30000;
#X msg 789 399 0 30000;
#X msg 59 357 0 10000;
#X msg 116 43 0 10000;
#X obj 255 57 r lfo-fall;
#X obj 649 45 r lfo-fall;
#X obj 1021 147 r lfo-fall;
#X obj 1277 686 r lfo-fall;
#X obj 991 518 r lfo-fall;
#X obj 625 665 r lfo-fall;
#X obj 789 371 r lfo-fall;
#X obj 192 355 r lfo-fall;
#X obj 578 26 r lfo-trig;
#X obj 709 371 r lfo-trig;
#X obj 493 574 r lfo-trig;
#X obj 1145 595 r lfo-trig;
#X obj 971 452 r lfo-trig;
#X obj 903 81 r lfo-trig;
#X obj 875 84 r fall;
#X msg 871 120 0 20000;
#X obj 737 644 vline~;
#X obj 717 560 r trig;
#X obj 638 561 r fall;
#X msg 634 597 0 20000;
#X msg 713 596 0.5 20000;
#X obj 823 615 +~;
#X obj 59 322 r fall;
#X obj 117 9 r fall;
#X obj 647 304 r fall;
#X msg 647 338 0 10000;
#N canvas 179 204 700 432 noise 0;
#X obj 279 219 list prepend lfo-rate;
#X obj 279 257 list trim;
#X obj 149 219 list prepend amp;
#X obj 278 409 throw~ bus;
#X obj 148 101 r trig;
#X msg 279 160 1 30000;
#X obj 210 107 r fall;
#X msg 210 131 0 9000;
#X msg 299 185 0 30000;
#X msg 148 134 1 10000;
#X obj 369 188 r lfo-fall;
#X obj 230 40 r lfo-trig;
#X obj 278 295 ghost-voice-noise~ 24 4 4.5 1;
#X obj 320 327 r noise-vol;
#X obj 280 365 *~;
#X obj 320 351 lop~ 5;
#X connect 0 0 1 0;
#X connect 1 0 12 0;
#X connect 2 0 1 0;
#X connect 4 0 9 0;
#X connect 5 0 0 0;
#X connect 6 0 7 0;
#X connect 7 0 2 0;
#X connect 8 0 0 0;
#X connect 9 0 2 0;
#X connect 10 0 8 0;
#X connect 11 0 5 0;
#X connect 12 0 14 0;
#X connect 13 0 15 0;
#X connect 14 0 3 0;
#X connect 15 0 14 1;
#X restore 29 644 pd noise;
#X obj 26 194 ghost-voice~ 1 1.5 5 1 0;
#X obj 823 644 ghost-voice~ -9 24 3.1 1 4;
#X obj 818 275 ghost-voice~ 2 8 3.2 1 1;
#X obj 561 492 ghost-voice~ 6 12 4.3 1 3;
#X obj 408 768 ghost-voice~ 11.1 32 3.7 1 5;
#X obj 1060 789 ghost-voice~ -13 47 4.3 1 6;
#X obj 392 193 ghost-voice~ -3.3333 6 4.9 1 2;
#X obj 1 512 ghost-voice~ -16.2 54 4.56 1 7;
#X obj 423 399 list prepend lfo-rate;
#X obj 423 437 list trim;
#X obj 292 341 list prepend amp;
#X obj 300 415 r~ root-sig;
#X obj 300 490 throw~ bus;
#X obj 292 271 r trig;
#X msg 423 340 1 30000;
#X msg 292 304 1 10000;
#X msg 491 345 0 30000;
#X msg 358 311 0 10000;
#X obj 491 309 r lfo-fall;
#X obj 358 276 r fall;
#X obj 300 466 ghost-voice~ 22 90 4.56 1 8;
#X obj 423 286 r lfo-trig;
#X obj 124 322 r lfo-trig;
#X obj 177 59 r lfo-trig;
#X connect 0 0 1 0;
#X connect 1 0 114 1;
#X connect 2 0 1 0;
#X connect 3 0 114 0;
#X connect 5 0 53 0;
#X connect 6 0 7 0;
#X connect 7 0 120 1;
#X connect 8 0 7 0;
#X connect 9 0 120 0;
#X connect 11 0 54 0;
#X connect 12 0 13 0;
#X connect 13 0 117 1;
#X connect 14 0 13 0;
#X connect 15 0 42 0;
#X connect 17 0 55 0;
#X connect 18 0 19 0;
#X connect 19 0 115 1;
#X connect 20 0 19 0;
#X connect 21 0 108 0;
#X connect 23 0 60 0;
#X connect 24 0 25 0;
#X connect 25 0 118 1;
#X connect 26 0 25 0;
#X connect 27 0 118 0;
#X connect 29 0 59 0;
#X connect 30 0 31 0;
#X connect 31 0 121 1;
#X connect 32 0 31 0;
#X connect 33 0 121 0;
#X connect 35 0 68 0;
#X connect 36 0 37 0;
#X connect 37 0 119 1;
#X connect 38 0 37 0;
#X connect 39 0 119 0;
#X connect 41 0 58 0;
#X connect 42 0 117 0;
#X connect 43 0 44 0;
#X connect 44 0 116 1;
#X connect 45 0 44 0;
#X connect 46 0 49 0;
#X connect 48 0 73 0;
#X connect 49 0 116 0;
#X connect 50 0 49 1;
#X connect 51 0 57 0;
#X connect 52 0 0 0;
#X connect 53 0 2 0;
#X connect 54 0 8 0;
#X connect 55 0 14 0;
#X connect 56 0 43 0;
#X connect 57 0 50 0;
#X connect 58 0 38 0;
#X connect 59 0 26 0;
#X connect 60 0 20 0;
#X connect 61 0 62 0;
#X connect 62 0 20 0;
#X connect 63 0 64 0;
#X connect 64 0 8 0;
#X connect 65 0 6 0;
#X connect 66 0 6 0;
#X connect 67 0 30 0;
#X connect 68 0 32 0;
#X connect 69 0 18 0;
#X connect 70 0 24 0;
#X connect 71 0 12 0;
#X connect 72 0 36 0;
#X connect 73 0 45 0;
#X connect 74 0 75 0;
#X connect 75 0 38 0;
#X connect 76 0 77 0;
#X connect 77 0 50 0;
#X connect 78 0 30 0;
#X connect 79 0 24 0;
#X connect 80 0 0 0;
#X connect 81 0 43 0;
#X connect 82 0 36 0;
#X connect 83 0 18 0;
#X connect 84 0 12 0;
#X connect 85 0 32 0;
#X connect 86 0 2 0;
#X connect 87 0 80 0;
#X connect 88 0 66 0;
#X connect 89 0 81 0;
#X connect 90 0 82 0;
#X connect 91 0 83 0;
#X connect 92 0 79 0;
#X connect 93 0 84 0;
#X connect 94 0 78 0;
#X connect 95 0 65 0;
#X connect 96 0 71 0;
#X connect 97 0 70 0;
#X connect 98 0 72 0;
#X connect 99 0 69 0;
#X connect 100 0 56 0;
#X connect 101 0 102 0;
#X connect 102 0 45 0;
#X connect 103 0 108 1;
#X connect 104 0 107 0;
#X connect 105 0 106 0;
#X connect 106 0 103 0;
#X connect 107 0 103 0;
#X connect 108 0 115 0;
#X connect 109 0 85 0;
#X connect 110 0 86 0;
#X connect 111 0 112 0;
#X connect 112 0 14 0;
#X connect 114 0 4 0;
#X connect 115 0 22 0;
#X connect 116 0 47 0;
#X connect 117 0 16 0;
#X connect 118 0 28 0;
#X connect 119 0 40 0;
#X connect 120 0 10 0;
#X connect 121 0 34 0;
#X connect 122 0 123 0;
#X connect 123 0 134 1;
#X connect 124 0 123 0;
#X connect 125 0 134 0;
#X connect 127 0 129 0;
#X connect 128 0 122 0;
#X connect 129 0 124 0;
#X connect 130 0 122 0;
#X connect 131 0 124 0;
#X connect 132 0 130 0;
#X connect 133 0 131 0;
#X connect 134 0 126 0;
#X connect 135 0 128 0;
#X connect 136 0 67 0;
#X connect 137 0 52 0;
#X restore 76 437 pd osc-bank;
#X obj 871 375 s screenLine4;
#X msg 871 348 4: Root: \$1hz;
#X obj 776 247 * 10;
#X obj 776 271 i;
#X obj 776 295 / 10;
#X obj 893 180 hsl 128 15 0 127 0 0 empty empty empty -2 -8 0 10 #fcfcfc
#000000 #000000 0 1;
#X obj 890 200 / 127;
#X obj 776 319 t a a, f 14;
#X obj 178 36 r buttons;
#X obj 269 32 r buttons;
#X obj 88 97 s trig;
#X obj 178 98 s fall;
#X obj 387 31 r buttons;
#X obj 90 148 r buttons;
#X obj 90 210 s noise-gate;
#X obj 387 93 s lfo-fall;
#X obj 269 94 s lfo-trig;
#X obj 611 180 hsl 128 15 0 127 0 0 empty empty empty -2 -8 0 10 #fcfcfc
#000000 #000000 0 1;
#X obj 608 200 / 127;
#X obj 494 259 t a a, f 14;
#X obj 494 175 r knob1;
#X obj 589 375 s screenLine1;
#X msg 589 348 1: LFO Depth: \$1%;
#X obj 589 283 * 100;
#X obj 589 307 i;
#X obj 294 485 s voice-mutes;
#X obj 14 337 - 12;
#X obj 14 361 % 24;
#X obj 88 59 sel 0;
#X obj 178 60 sel 2;
#X obj 269 56 sel 1;
#X obj 387 55 sel 3;
#X obj 90 172 sel 5;
#X obj 242 332 r buttons;
#X obj 242 356 moses 12;
#X obj 295 401 - 12;
#X obj 241 153 r buttons;
#X obj 241 177 sel 23;
#X obj 241 215 s all-on;
#X obj 33 39 bng 15 250 50 0 empty empty empty 17 7 0 10 #fcfcfc #000000
#000000;
#X obj 235 17 bng 15 250 50 0 empty empty empty 17 7 0 10 #fcfcfc #000000
#000000;
#X obj 494 393 s lfo-depth;
#X obj 616 464 hsl 128 15 0 127 0 0 empty empty empty -2 -8 0 10 #fcfcfc
#000000 #000000 0 1;
#X obj 613 484 / 127;
#X obj 499 543 t a a, f 14;
#X obj 594 567 * 100;
#X obj 594 591 i;
#X msg 594 632 1: Noise Vol: \$1%;
#X obj 594 659 s screenLine2;
#X obj 499 677 s noise-vol;
#X obj 499 459 r knob2;
#X connect 1 0 4 0;
#X connect 4 0 2 0;
#X connect 4 0 3 0;
#X connect 5 0 6 0;
#X connect 6 0 40 0;
#X connect 8 0 42 0;
#X connect 9 0 11 0;
#X connect 10 0 0 0;
#X connect 11 0 12 0;
#X connect 12 0 16 0;
#X connect 15 0 14 0;
#X connect 16 0 17 0;
#X connect 17 0 18 0;
#X connect 18 0 21 0;
#X connect 19 0 20 0;
#X connect 20 0 11 0;
#X connect 21 0 10 0;
#X connect 21 1 15 0;
#X connect 22 0 43 0;
#X connect 23 0 44 0;
#X connect 26 0 45 0;
#X connect 27 0 46 0;
#X connect 31 0 32 0;
#X connect 32 0 33 0;
#X connect 33 0 55 0;
#X connect 33 1 37 0;
#X connect 34 0 33 0;
#X connect 36 0 35 0;
#X connect 37 0 38 0;
#X connect 38 0 36 0;
#X connect 40 0 41 0;
#X connect 41 0 7 0;
#X connect 42 0 24 0;
#X connect 43 0 25 0;
#X connect 44 0 30 0;
#X connect 45 0 29 0;
#X connect 46 0 28 0;
#X connect 47 0 48 0;
#X connect 48 1 49 0;
#X connect 49 0 39 0;
#X connect 50 0 51 0;
#X connect 51 0 52 0;
#X connect 53 0 24 0;
#X connect 54 0 30 0;
#X connect 56 0 57 0;
#X connect 57 0 58 0;
#X connect 58 0 63 0;
#X connect 58 1 59 0;
#X connect 59 0 60 0;
#X connect 60 0 61 0;
#X connect 61 0 62 0;
#X connect 64 0 58 0;
